<mxfile host="app.diagrams.net" modified="2024-07-23T19:15:40.253Z" agent="Mozilla/5.0 (Windows NT 10.0; Win64; x64) AppleWebKit/537.36 (KHTML, like Gecko) Chrome/126.0.0.0 Safari/537.36" etag="27oHzOAExPzec8glVmvw" version="24.7.1" type="device">
  <diagram name="Page-1" id="c4acf3e9-155e-7222-9cf6-157b1a14988f">
    <mxGraphModel dx="793" dy="1097" grid="1" gridSize="10" guides="1" tooltips="1" connect="1" arrows="1" fold="1" page="1" pageScale="1" pageWidth="850" pageHeight="1100" background="none" math="0" shadow="0">
      <root>
        <mxCell id="0" />
        <mxCell id="1" parent="0" />
        <mxCell id="17acba5748e5396b-1" value="frame" style="shape=umlFrame;whiteSpace=wrap;html=1;rounded=0;shadow=0;comic=0;labelBackgroundColor=none;strokeWidth=1;fontFamily=Verdana;fontSize=10;align=center;" parent="1" vertex="1">
          <mxGeometry x="1080" y="100" width="820" height="1060" as="geometry" />
        </mxCell>
        <mxCell id="5d2195bd80daf111-26" style="edgeStyle=orthogonalEdgeStyle;rounded=0;html=1;dashed=1;labelBackgroundColor=none;startFill=0;endArrow=open;endFill=0;endSize=10;fontFamily=Verdana;fontSize=10;exitX=0.5;exitY=0;exitDx=0;exitDy=0;" parent="1" source="5d2195bd80daf111-18" target="5d2195bd80daf111-17" edge="1">
          <mxGeometry relative="1" as="geometry">
            <Array as="points" />
            <mxPoint x="640" y="300" as="sourcePoint" />
          </mxGeometry>
        </mxCell>
        <mxCell id="5d2195bd80daf111-17" value="«interface»&lt;br&gt;&lt;b&gt;ActionListener&lt;/b&gt;" style="html=1;rounded=0;shadow=0;comic=0;labelBackgroundColor=none;strokeWidth=1;fontFamily=Verdana;fontSize=10;align=center;" parent="1" vertex="1">
          <mxGeometry x="110" y="80" width="110" height="50" as="geometry" />
        </mxCell>
        <mxCell id="5d2195bd80daf111-18" value="&lt;p style=&quot;margin:0px;margin-top:4px;text-align:center;&quot;&gt;&lt;i&gt;&amp;lt;&amp;lt;class&amp;gt;&amp;gt;&lt;/i&gt;&lt;br&gt;&lt;b&gt;GameController&lt;/b&gt;&lt;/p&gt;&lt;hr size=&quot;1&quot;&gt;&lt;p style=&quot;margin:0px;margin-left:4px;&quot;&gt;- GameoOfLife&lt;br&gt;- field2: Type&lt;/p&gt;&lt;hr size=&quot;1&quot;&gt;&lt;p style=&quot;margin:0px;margin-left:4px;&quot;&gt;+ actionPerformed()&lt;br&gt;&lt;br&gt;&lt;/p&gt;" style="verticalAlign=top;align=left;overflow=fill;fontSize=12;fontFamily=Helvetica;html=1;rounded=0;shadow=0;comic=0;labelBackgroundColor=none;strokeWidth=1" parent="1" vertex="1">
          <mxGeometry x="50" y="190" width="130" height="140" as="geometry" />
        </mxCell>
        <mxCell id="X6DVtG3DiVc06HwYq-2z-1" value="«class»&lt;br&gt;&lt;b&gt;Jpanel&lt;/b&gt;" style="html=1;rounded=0;shadow=0;comic=0;labelBackgroundColor=none;strokeWidth=1;fontFamily=Verdana;fontSize=10;align=center;" parent="1" vertex="1">
          <mxGeometry x="530" y="70" width="110" height="50" as="geometry" />
        </mxCell>
        <mxCell id="X6DVtG3DiVc06HwYq-2z-2" value="&lt;p style=&quot;margin:0px;margin-top:4px;text-align:center;&quot;&gt;&lt;i&gt;&amp;lt;&amp;lt;class&amp;gt;&amp;gt;&lt;/i&gt;&lt;br&gt;&lt;b&gt;GamePanel&lt;/b&gt;&lt;/p&gt;&lt;hr size=&quot;1&quot;&gt;&lt;p style=&quot;margin:0px;margin-left:4px;&quot;&gt;- GameoOfLife&lt;br&gt;- field2: Type&lt;/p&gt;&lt;hr size=&quot;1&quot;&gt;&lt;p style=&quot;margin:0px;margin-left:4px;&quot;&gt;+ actionPerformed()&lt;br&gt;&lt;/p&gt;" style="verticalAlign=top;align=left;overflow=fill;fontSize=12;fontFamily=Helvetica;html=1;rounded=0;shadow=0;comic=0;labelBackgroundColor=none;strokeWidth=1" parent="1" vertex="1">
          <mxGeometry x="600" y="170" width="130" height="140" as="geometry" />
        </mxCell>
        <mxCell id="X6DVtG3DiVc06HwYq-2z-3" value="&lt;p style=&quot;margin:0px;margin-top:4px;text-align:center;&quot;&gt;&lt;i&gt;&amp;lt;&amp;lt;class&amp;gt;&amp;gt;&lt;/i&gt;&lt;br&gt;&lt;b&gt;ControlPanel&lt;/b&gt;&lt;/p&gt;&lt;hr size=&quot;1&quot;&gt;&lt;p style=&quot;margin:0px;margin-left:4px;&quot;&gt;- Jbutton&lt;/p&gt;&lt;hr size=&quot;1&quot;&gt;&lt;p style=&quot;margin:0px;margin-left:4px;&quot;&gt;+ addControlListener()&lt;br&gt;&lt;/p&gt;" style="verticalAlign=top;align=left;overflow=fill;fontSize=12;fontFamily=Helvetica;html=1;rounded=0;shadow=0;comic=0;labelBackgroundColor=none;strokeWidth=1" parent="1" vertex="1">
          <mxGeometry x="390" y="490" width="130" height="140" as="geometry" />
        </mxCell>
        <mxCell id="X6DVtG3DiVc06HwYq-2z-11" value="Extends" style="endArrow=block;endSize=16;endFill=0;html=1;rounded=0;entryX=0;entryY=0.5;entryDx=0;entryDy=0;exitX=0.5;exitY=0;exitDx=0;exitDy=0;" parent="1" source="X6DVtG3DiVc06HwYq-2z-3" target="X6DVtG3DiVc06HwYq-2z-1" edge="1">
          <mxGeometry x="-0.7447" width="160" relative="1" as="geometry">
            <mxPoint x="340" y="520" as="sourcePoint" />
            <mxPoint x="500" y="520" as="targetPoint" />
            <Array as="points">
              <mxPoint x="455" y="95" />
            </Array>
            <mxPoint as="offset" />
          </mxGeometry>
        </mxCell>
        <mxCell id="X6DVtG3DiVc06HwYq-2z-12" value="Extends" style="endArrow=block;endSize=16;endFill=0;html=1;rounded=0;entryX=1;entryY=0.5;entryDx=0;entryDy=0;exitX=0.7;exitY=0.007;exitDx=0;exitDy=0;exitPerimeter=0;" parent="1" source="X6DVtG3DiVc06HwYq-2z-2" target="X6DVtG3DiVc06HwYq-2z-1" edge="1">
          <mxGeometry width="160" relative="1" as="geometry">
            <mxPoint x="340" y="520" as="sourcePoint" />
            <mxPoint x="500" y="520" as="targetPoint" />
            <Array as="points">
              <mxPoint x="690" y="95" />
            </Array>
          </mxGeometry>
        </mxCell>
        <mxCell id="yVvVJKVNnEMEu64JW-FT-1" value="«class»&lt;br&gt;&lt;b&gt;MouseAdapter&lt;/b&gt;" style="html=1;rounded=0;shadow=0;comic=0;labelBackgroundColor=none;strokeWidth=1;fontFamily=Verdana;fontSize=10;align=center;" parent="1" vertex="1">
          <mxGeometry x="250" y="80" width="110" height="50" as="geometry" />
        </mxCell>
        <mxCell id="yVvVJKVNnEMEu64JW-FT-2" value="&lt;p style=&quot;margin:0px;margin-top:4px;text-align:center;&quot;&gt;&lt;i&gt;&amp;lt;&amp;lt;class&amp;gt;&amp;gt;&lt;/i&gt;&lt;br&gt;&lt;b&gt;MouseHandler&lt;/b&gt;&lt;/p&gt;&lt;hr size=&quot;1&quot;&gt;&lt;p style=&quot;margin:0px;margin-left:4px;&quot;&gt;- GameoOfLife&lt;br&gt;- GamePanel&lt;/p&gt;&lt;hr size=&quot;1&quot;&gt;&lt;p style=&quot;margin:0px;margin-left:4px;&quot;&gt;+ mousePressed()&lt;br&gt;+ mouseDragged()&lt;/p&gt;" style="verticalAlign=top;align=left;overflow=fill;fontSize=12;fontFamily=Helvetica;html=1;rounded=0;shadow=0;comic=0;labelBackgroundColor=none;strokeWidth=1" parent="1" vertex="1">
          <mxGeometry x="270" y="190" width="130" height="140" as="geometry" />
        </mxCell>
        <mxCell id="yVvVJKVNnEMEu64JW-FT-3" value="Extends" style="endArrow=block;endSize=16;endFill=0;html=1;rounded=0;exitX=0.5;exitY=0;exitDx=0;exitDy=0;entryX=0.5;entryY=1;entryDx=0;entryDy=0;" parent="1" source="yVvVJKVNnEMEu64JW-FT-2" target="yVvVJKVNnEMEu64JW-FT-1" edge="1">
          <mxGeometry width="160" relative="1" as="geometry">
            <mxPoint x="330" y="360" as="sourcePoint" />
            <mxPoint x="310" y="130" as="targetPoint" />
          </mxGeometry>
        </mxCell>
        <mxCell id="yVvVJKVNnEMEu64JW-FT-5" value="&lt;p style=&quot;margin:0px;margin-top:4px;text-align:center;&quot;&gt;&lt;i&gt;&amp;lt;&amp;lt;class&amp;gt;&amp;gt;&lt;/i&gt;&lt;br&gt;&lt;b&gt;Cell&lt;/b&gt;&lt;/p&gt;&lt;hr size=&quot;1&quot;&gt;&lt;p style=&quot;margin:0px;margin-left:4px;&quot;&gt;- isAlive : Boolean&lt;br&gt;&lt;/p&gt;&lt;hr size=&quot;1&quot;&gt;&lt;p style=&quot;margin:0px;margin-left:4px;&quot;&gt;+ setAlive()&lt;br&gt;+ isAlive()&lt;/p&gt;" style="verticalAlign=top;align=left;overflow=fill;fontSize=12;fontFamily=Helvetica;html=1;rounded=0;shadow=0;comic=0;labelBackgroundColor=none;strokeWidth=1" parent="1" vertex="1">
          <mxGeometry x="65" y="940" width="130" height="110" as="geometry" />
        </mxCell>
        <mxCell id="yVvVJKVNnEMEu64JW-FT-6" value="&lt;p style=&quot;margin:0px;margin-top:4px;text-align:center;&quot;&gt;&lt;i&gt;&amp;lt;&amp;lt;class&amp;gt;&amp;gt;&lt;/i&gt;&lt;br&gt;&lt;b&gt;Grid&lt;/b&gt;&lt;/p&gt;&lt;hr size=&quot;1&quot;&gt;&lt;p style=&quot;margin:0px;margin-left:4px;&quot;&gt;&lt;span style=&quot;background-color: initial;&quot;&gt;- width, height : int&lt;/span&gt;&lt;br&gt;&lt;/p&gt;&lt;p style=&quot;margin:0px;margin-left:4px;&quot;&gt;- cells: Cell[][]&lt;/p&gt;&lt;hr size=&quot;1&quot;&gt;&lt;p style=&quot;margin:0px;margin-left:4px;&quot;&gt;+ initializeGrid()&lt;br&gt;+ setNewCell()&lt;/p&gt;&lt;p style=&quot;margin:0px;margin-left:4px;&quot;&gt;+ setCell()&lt;/p&gt;" style="verticalAlign=top;align=left;overflow=fill;fontSize=12;fontFamily=Helvetica;html=1;rounded=0;shadow=0;comic=0;labelBackgroundColor=none;strokeWidth=1" parent="1" vertex="1">
          <mxGeometry x="65" y="750" width="130" height="140" as="geometry" />
        </mxCell>
        <mxCell id="yVvVJKVNnEMEu64JW-FT-7" value="" style="endArrow=diamondThin;endFill=1;endSize=24;html=1;rounded=0;entryX=0.5;entryY=1;entryDx=0;entryDy=0;exitX=0.5;exitY=0;exitDx=0;exitDy=0;" parent="1" source="yVvVJKVNnEMEu64JW-FT-5" target="yVvVJKVNnEMEu64JW-FT-6" edge="1">
          <mxGeometry width="160" relative="1" as="geometry">
            <mxPoint x="-265" y="560" as="sourcePoint" />
            <mxPoint x="-105" y="560" as="targetPoint" />
          </mxGeometry>
        </mxCell>
        <mxCell id="yVvVJKVNnEMEu64JW-FT-8" value="&lt;p style=&quot;margin:0px;margin-top:4px;text-align:center;&quot;&gt;&lt;i&gt;&amp;lt;&amp;lt;class&amp;gt;&amp;gt;&lt;/i&gt;&lt;br&gt;&lt;b&gt;GameOfLife&lt;/b&gt;&lt;/p&gt;&lt;hr size=&quot;1&quot;&gt;&lt;p style=&quot;margin:0px;margin-left:4px;&quot;&gt;&lt;span style=&quot;background-color: initial;&quot;&gt;- grid : Grid&lt;/span&gt;&lt;br&gt;&lt;/p&gt;&lt;p style=&quot;margin:0px;margin-left:4px;&quot;&gt;&lt;span style=&quot;background-color: initial;&quot;&gt;- nextGenerationGrid : Grid&lt;/span&gt;&lt;/p&gt;&lt;p style=&quot;margin:0px;margin-left:4px;&quot;&gt;- generation: int&lt;/p&gt;&lt;hr size=&quot;1&quot;&gt;&lt;p style=&quot;margin:0px;margin-left:4px;&quot;&gt;+ nextGeneration()&lt;br&gt;+ update()&lt;/p&gt;&lt;p style=&quot;margin:0px;margin-left:4px;&quot;&gt;+ countAliveNeighbors()&lt;/p&gt;&lt;p style=&quot;margin:0px;margin-left:4px;&quot;&gt;+ getGrid()&lt;/p&gt;&lt;p style=&quot;margin:0px;margin-left:4px;&quot;&gt;+ setGrid()&lt;/p&gt;" style="verticalAlign=top;align=left;overflow=fill;fontSize=12;fontFamily=Helvetica;html=1;rounded=0;shadow=0;comic=0;labelBackgroundColor=none;strokeWidth=1" parent="1" vertex="1">
          <mxGeometry x="50" y="490" width="160" height="180" as="geometry" />
        </mxCell>
        <mxCell id="yVvVJKVNnEMEu64JW-FT-9" value="" style="endArrow=diamondThin;endFill=0;endSize=24;html=1;rounded=0;entryX=0.5;entryY=1;entryDx=0;entryDy=0;exitX=0.5;exitY=0;exitDx=0;exitDy=0;" parent="1" source="yVvVJKVNnEMEu64JW-FT-6" target="yVvVJKVNnEMEu64JW-FT-8" edge="1">
          <mxGeometry width="160" relative="1" as="geometry">
            <mxPoint x="-245" y="560" as="sourcePoint" />
            <mxPoint x="-85" y="560" as="targetPoint" />
          </mxGeometry>
        </mxCell>
        <mxCell id="yVvVJKVNnEMEu64JW-FT-10" value="&lt;p style=&quot;margin:0px;margin-top:4px;text-align:center;&quot;&gt;&lt;i&gt;&amp;lt;&amp;lt;class&amp;gt;&amp;gt;&lt;/i&gt;&lt;br&gt;&lt;b&gt;GameOfLife&lt;/b&gt;&lt;/p&gt;&lt;hr size=&quot;1&quot;&gt;&lt;p style=&quot;margin:0px;margin-left:4px;&quot;&gt;&lt;span style=&quot;background-color: initial;&quot;&gt;- grid : Grid&lt;/span&gt;&lt;br&gt;&lt;/p&gt;&lt;p style=&quot;margin:0px;margin-left:4px;&quot;&gt;&lt;span style=&quot;background-color: initial;&quot;&gt;- nextGenerationGrid : Grid&lt;/span&gt;&lt;/p&gt;&lt;p style=&quot;margin:0px;margin-left:4px;&quot;&gt;- generation: int&lt;/p&gt;&lt;hr size=&quot;1&quot;&gt;&lt;p style=&quot;margin:0px;margin-left:4px;&quot;&gt;+ nextGeneration()&lt;br&gt;+ update()&lt;/p&gt;&lt;p style=&quot;margin:0px;margin-left:4px;&quot;&gt;+ countAliveNeighbors()&lt;/p&gt;&lt;p style=&quot;margin:0px;margin-left:4px;&quot;&gt;+ getGrid()&lt;/p&gt;&lt;p style=&quot;margin:0px;margin-left:4px;&quot;&gt;+ setGrid()&lt;/p&gt;" style="verticalAlign=top;align=left;overflow=fill;fontSize=12;fontFamily=Helvetica;html=1;rounded=0;shadow=0;comic=0;labelBackgroundColor=none;strokeWidth=1" parent="1" vertex="1">
          <mxGeometry x="50" y="490" width="160" height="180" as="geometry" />
        </mxCell>
        <mxCell id="yVvVJKVNnEMEu64JW-FT-15" value="" style="endArrow=diamondThin;endFill=1;endSize=24;html=1;rounded=0;exitX=0;exitY=0.5;exitDx=0;exitDy=0;entryX=1;entryY=0.5;entryDx=0;entryDy=0;" parent="1" source="yVvVJKVNnEMEu64JW-FT-2" target="5d2195bd80daf111-18" edge="1">
          <mxGeometry width="160" relative="1" as="geometry">
            <mxPoint x="320" y="360" as="sourcePoint" />
            <mxPoint x="230" y="180" as="targetPoint" />
          </mxGeometry>
        </mxCell>
        <mxCell id="yVvVJKVNnEMEu64JW-FT-16" value="" style="endArrow=diamondThin;endFill=0;endSize=24;html=1;rounded=0;entryX=0;entryY=0.5;entryDx=0;entryDy=0;exitX=0.5;exitY=1;exitDx=0;exitDy=0;" parent="1" source="5d2195bd80daf111-18" target="X6DVtG3DiVc06HwYq-2z-3" edge="1">
          <mxGeometry width="160" relative="1" as="geometry">
            <mxPoint x="320" y="360" as="sourcePoint" />
            <mxPoint x="480" y="360" as="targetPoint" />
            <Array as="points">
              <mxPoint x="115" y="390" />
              <mxPoint x="300" y="390" />
              <mxPoint x="300" y="560" />
            </Array>
          </mxGeometry>
        </mxCell>
        <mxCell id="yVvVJKVNnEMEu64JW-FT-17" value="" style="endArrow=diamondThin;endFill=0;endSize=24;html=1;rounded=0;exitX=0;exitY=0.25;exitDx=0;exitDy=0;entryX=1;entryY=0.25;entryDx=0;entryDy=0;" parent="1" source="X6DVtG3DiVc06HwYq-2z-2" target="yVvVJKVNnEMEu64JW-FT-2" edge="1">
          <mxGeometry width="160" relative="1" as="geometry">
            <mxPoint x="320" y="360" as="sourcePoint" />
            <mxPoint x="530" y="330" as="targetPoint" />
            <Array as="points">
              <mxPoint x="480" y="205" />
              <mxPoint x="480" y="225" />
            </Array>
          </mxGeometry>
        </mxCell>
        <mxCell id="yVvVJKVNnEMEu64JW-FT-18" value="Use" style="endArrow=open;endSize=12;dashed=1;html=1;rounded=0;exitX=0.25;exitY=1;exitDx=0;exitDy=0;entryX=0.2;entryY=-0.011;entryDx=0;entryDy=0;entryPerimeter=0;" parent="1" source="5d2195bd80daf111-18" target="yVvVJKVNnEMEu64JW-FT-10" edge="1">
          <mxGeometry width="160" relative="1" as="geometry">
            <mxPoint x="320" y="360" as="sourcePoint" />
            <mxPoint x="60" y="440" as="targetPoint" />
          </mxGeometry>
        </mxCell>
        <mxCell id="yVvVJKVNnEMEu64JW-FT-20" value="&lt;p style=&quot;margin:0px;margin-top:4px;text-align:center;&quot;&gt;&lt;i&gt;&amp;lt;&amp;lt;class&amp;gt;&amp;gt;&lt;/i&gt;&lt;br&gt;&lt;b&gt;GameOfLifeApp&lt;/b&gt;&lt;/p&gt;&lt;hr size=&quot;1&quot;&gt;&lt;p style=&quot;margin:0px;margin-left:4px;&quot;&gt;-&amp;nbsp;&lt;/p&gt;&lt;hr size=&quot;1&quot;&gt;&lt;p style=&quot;margin:0px;margin-left:4px;&quot;&gt;+&amp;nbsp;&lt;br&gt;&lt;/p&gt;" style="verticalAlign=top;align=left;overflow=fill;fontSize=12;fontFamily=Helvetica;html=1;rounded=0;shadow=0;comic=0;labelBackgroundColor=none;strokeWidth=1" parent="1" vertex="1">
          <mxGeometry x="360" y="760" width="130" height="140" as="geometry" />
        </mxCell>
        <mxCell id="yVvVJKVNnEMEu64JW-FT-21" value="«class»&lt;br&gt;&lt;b&gt;Jpanel&lt;/b&gt;" style="html=1;rounded=0;shadow=0;comic=0;labelBackgroundColor=none;strokeWidth=1;fontFamily=Verdana;fontSize=10;align=center;" parent="1" vertex="1">
          <mxGeometry x="660" y="760" width="110" height="50" as="geometry" />
        </mxCell>
        <mxCell id="yVvVJKVNnEMEu64JW-FT-22" value="" style="endArrow=diamondThin;endFill=1;endSize=24;html=1;rounded=0;entryX=1;entryY=0.25;entryDx=0;entryDy=0;exitX=0;exitY=0.75;exitDx=0;exitDy=0;" parent="1" source="yVvVJKVNnEMEu64JW-FT-21" target="yVvVJKVNnEMEu64JW-FT-20" edge="1">
          <mxGeometry width="160" relative="1" as="geometry">
            <mxPoint x="320" y="560" as="sourcePoint" />
            <mxPoint x="480" y="560" as="targetPoint" />
          </mxGeometry>
        </mxCell>
        <mxCell id="yVvVJKVNnEMEu64JW-FT-23" value="" style="endArrow=diamondThin;endFill=1;endSize=24;html=1;rounded=0;entryX=0.25;entryY=0;entryDx=0;entryDy=0;exitX=0.25;exitY=1;exitDx=0;exitDy=0;" parent="1" source="X6DVtG3DiVc06HwYq-2z-3" target="yVvVJKVNnEMEu64JW-FT-20" edge="1">
          <mxGeometry width="160" relative="1" as="geometry">
            <mxPoint x="320" y="660" as="sourcePoint" />
            <mxPoint x="480" y="660" as="targetPoint" />
            <Array as="points">
              <mxPoint x="423" y="660" />
              <mxPoint x="393" y="660" />
            </Array>
          </mxGeometry>
        </mxCell>
        <mxCell id="yVvVJKVNnEMEu64JW-FT-24" value="" style="endArrow=diamondThin;endFill=1;endSize=24;html=1;rounded=0;exitX=1;exitY=0.75;exitDx=0;exitDy=0;entryX=0.015;entryY=0.693;entryDx=0;entryDy=0;entryPerimeter=0;" parent="1" source="yVvVJKVNnEMEu64JW-FT-6" target="yVvVJKVNnEMEu64JW-FT-20" edge="1">
          <mxGeometry width="160" relative="1" as="geometry">
            <mxPoint x="270" y="740" as="sourcePoint" />
            <mxPoint x="280" y="890" as="targetPoint" />
          </mxGeometry>
        </mxCell>
        <mxCell id="yVvVJKVNnEMEu64JW-FT-25" value="" style="endArrow=diamondThin;endFill=1;endSize=24;html=1;rounded=0;entryX=0.75;entryY=0;entryDx=0;entryDy=0;exitX=0.25;exitY=1;exitDx=0;exitDy=0;" parent="1" source="X6DVtG3DiVc06HwYq-2z-2" target="yVvVJKVNnEMEu64JW-FT-20" edge="1">
          <mxGeometry width="160" relative="1" as="geometry">
            <mxPoint x="320" y="660" as="sourcePoint" />
            <mxPoint x="480" y="660" as="targetPoint" />
            <Array as="points">
              <mxPoint x="633" y="440" />
              <mxPoint x="633" y="710" />
              <mxPoint x="458" y="710" />
            </Array>
          </mxGeometry>
        </mxCell>
        <mxCell id="yVvVJKVNnEMEu64JW-FT-26" value="" style="endArrow=diamondThin;endFill=1;endSize=24;html=1;rounded=0;entryX=0;entryY=0.25;entryDx=0;entryDy=0;exitX=1;exitY=0.75;exitDx=0;exitDy=0;" parent="1" source="yVvVJKVNnEMEu64JW-FT-10" target="yVvVJKVNnEMEu64JW-FT-20" edge="1">
          <mxGeometry width="160" relative="1" as="geometry">
            <mxPoint x="220" y="680" as="sourcePoint" />
            <mxPoint x="290" y="800" as="targetPoint" />
            <Array as="points">
              <mxPoint x="300" y="625" />
              <mxPoint x="300" y="795" />
            </Array>
          </mxGeometry>
        </mxCell>
        <mxCell id="yVvVJKVNnEMEu64JW-FT-27" value="«class»&lt;br&gt;&lt;b&gt;Main&lt;/b&gt;" style="html=1;rounded=0;shadow=0;comic=0;labelBackgroundColor=none;strokeWidth=1;fontFamily=Verdana;fontSize=10;align=center;" parent="1" vertex="1">
          <mxGeometry x="370" y="980" width="110" height="50" as="geometry" />
        </mxCell>
        <mxCell id="yVvVJKVNnEMEu64JW-FT-28" value="Use" style="endArrow=open;endSize=12;dashed=1;html=1;rounded=0;exitX=0.5;exitY=0;exitDx=0;exitDy=0;entryX=0.5;entryY=1;entryDx=0;entryDy=0;" parent="1" source="yVvVJKVNnEMEu64JW-FT-27" target="yVvVJKVNnEMEu64JW-FT-20" edge="1">
          <mxGeometry width="160" relative="1" as="geometry">
            <mxPoint x="370" y="660" as="sourcePoint" />
            <mxPoint x="530" y="660" as="targetPoint" />
          </mxGeometry>
        </mxCell>
      </root>
    </mxGraphModel>
  </diagram>
</mxfile>
